<?xml version="1.0" encoding="iso-8859-1"?>
<!-- Generator: Adobe Illustrator 19.0.0, SVG Export Plug-In . SVG Version: 6.00 Build 0)  -->
<svg version="1.1" id="Layer_1" xmlns="http://www.w3.org/2000/svg" xmlns:xlink="http://www.w3.org/1999/xlink" x="0px" y="0px"
	 viewBox="0 0 512 512" style="enable-background:new 0 0 512 512; fill: #fff;" xml:space="preserve">
<g>
	<g>
		<path d="M256,0C114.615,0,0,114.615,0,256s114.615,256,256,256s256-114.615,256-256S397.385,0,256,0z M256,494.933
			C124.041,494.933,17.067,387.959,17.067,256S124.041,17.067,256,17.067S494.933,124.041,494.933,256S387.959,494.933,256,494.933z
			"/>
	</g>
</g>
<g>
	<g>
		<path d="M394.24,178.347l-59.733-44.8c-6.068-4.551-14.412-4.551-20.48,0L256,177.067l-58.027-43.52
			c-6.068-4.551-14.412-4.551-20.48,0l-59.733,44.8c-4.297,3.223-6.827,8.281-6.827,13.653v149.333
			c0,9.426,7.641,17.067,17.067,17.067c3.693,0,7.286-1.198,10.24-3.413l49.493-37.12l58.027,43.52
			c6.068,4.551,14.412,4.551,20.48,0l58.027-43.52l49.493,37.12c7.541,5.655,18.238,4.127,23.893-3.413
			c2.216-2.954,3.413-6.547,3.413-10.24V192C401.067,186.628,398.538,181.57,394.24,178.347z M179.2,303.36
			c-0.586,0.25-1.156,0.535-1.707,0.853L128,341.333V192l51.2-38.4V303.36z M247.467,341.333l-49.493-37.12
			c-0.551-0.319-1.121-0.604-1.707-0.853V153.6l49.493,37.12c0.552,0.318,1.122,0.603,1.707,0.853V341.333z M315.733,303.36
			c-0.585,0.251-1.155,0.536-1.707,0.853l-49.493,37.12v-149.76c0.585-0.251,1.155-0.536,1.707-0.853l49.493-37.12V303.36z
			 M384,341.333l-49.493-37.12c-0.552-0.318-1.122-0.603-1.707-0.853V153.6L384,192V341.333z"/>
	</g>
</g>
<g>
</g>
<g>
</g>
<g>
</g>
<g>
</g>
<g>
</g>
<g>
</g>
<g>
</g>
<g>
</g>
<g>
</g>
<g>
</g>
<g>
</g>
<g>
</g>
<g>
</g>
<g>
</g>
<g>
</g>
</svg>
