<?xml version="1.0"?>
<svg xmlns="http://www.w3.org/2000/svg" width="512" height="512" viewBox="0 0 512 512"><g><path d="M192,296H320a8,8,0,0,0,8-8V240a8,8,0,0,0-8-8H192a8,8,0,0,0-8,8v48A8,8,0,0,0,192,296Zm48-16V248h32v32Zm72,0H288V248h24ZM200,248h24v32H200Z"/><path d="M104,376H64a8,8,0,0,0-8,8v48a8,8,0,0,0,8,8h40a8,8,0,0,0,8-8V384A8,8,0,0,0,104,376Zm-8,48H72V392H96Z"/><path d="M448,376H408a8,8,0,0,0-8,8v48a8,8,0,0,0,8,8h40a8,8,0,0,0,8-8V384A8,8,0,0,0,448,376Zm-8,48H416V392h24Z"/><path d="M496,480H480V296h8a8,8,0,0,0,8-8V256a8,8,0,0,0-8-8H360V216h16a8,8,0,0,0,8-8V176a8,8,0,0,0-8-8H359.7A104.186,104.186,0,0,0,264,72.3V64h40a8,8,0,0,0,8-8V24a8,8,0,0,0-8-8H256a8,8,0,0,0-8,8V72.3A104.186,104.186,0,0,0,152.3,168H136a8,8,0,0,0-8,8v32a8,8,0,0,0,8,8h16v32H24a8,8,0,0,0-8,8v32a8,8,0,0,0,8,8h8V480H16a8,8,0,0,0,0,16H496a8,8,0,0,0,0-16ZM264,32h32V48H264Zm79.63,136H303.87c-.99-31.1-7.76-57.6-18.14-74.83A88.231,88.231,0,0,1,343.63,168ZM256,88c14.29,0,30.18,33.7,31.85,80h-63.7C225.82,121.7,241.71,88,256,88Zm-29.73,5.17C215.89,110.4,209.12,136.9,208.13,168H168.37A88.231,88.231,0,0,1,226.27,93.17ZM144,200V184H368v16Zm200,16v96H168V216ZM32,280V264H152v16Zm88,200H48V296H152v16H112a8,8,0,0,0-8,8v32a8,8,0,0,0,8,8h8Zm32,0H136V360h16Zm96,0H224V424a32.058,32.058,0,0,1,24-30.99Zm40,0H264V393.01A32.058,32.058,0,0,1,288,424Zm56,0H304V424a48,48,0,0,0-96,0v56H168V360H344Zm32,0H360V360h16Zm15-136H120V328H391Zm73,136H392V360h7a8,8,0,0,0,8-8V320a8,8,0,0,0-8-8H360V296H464ZM360,280V264H480v16Z"/></g></svg>
