<?xml version="1.0"?>
<svg xmlns="http://www.w3.org/2000/svg" width="512" height="512" viewBox="0 0 512 512"><g><path d="M496,480h-4.26A47.97,47.97,0,0,0,456,400h-.66A48.062,48.062,0,0,0,408,344a47.731,47.731,0,0,0-42.63,25.89A47.522,47.522,0,0,0,352,368V327.71a112,112,0,1,0-16,0v43.04a48.01,48.01,0,0,0-29.94,31.31A47.971,47.971,0,0,0,284.26,480H251.74a47.986,47.986,0,0,0-47.65-78.5L192,374.3V352a8,8,0,0,0,0-16H168a8,8,0,0,0,0,16h8v16H112v-8a8,8,0,0,0-8-8H72a8,8,0,0,0,0,16H96v5.93L79.99,402.75A47.972,47.972,0,0,0,28.26,480H16a8,8,0,0,0,0,16H496a8,8,0,0,0,0-16ZM196.11,422.96,203.69,440H185.01A32.118,32.118,0,0,1,196.11,422.96ZM169.05,384l-31.16,46.74L116.47,384ZM64,480a32,32,0,1,1,8.05-62.97L57.01,444.12a7.995,7.995,0,1,0,13.98,7.76l15.04-27.06A31.979,31.979,0,0,1,64,480Zm35.74,0a47.9,47.9,0,0,0-5.78-69.46l9.36-16.83,26.41,57.62A7.983,7.983,0,0,0,137,456h31.68a47.823,47.823,0,0,0,11.58,24Zm68.94-40H150.95l31.64-47.47,6.89,15.49A48.067,48.067,0,0,0,168.68,440ZM216,480a32.058,32.058,0,0,1-30.99-24H216a8,8,0,0,0,7.31-11.25l-12.58-28.31A32.587,32.587,0,0,1,216,416a32,32,0,0,1,0,64Zm32-264a96,96,0,1,1,104,95.66V275.31l33.66-33.65a8,8,0,1,0-11.32-11.32L352,252.69V232a8.008,8.008,0,0,0-2.34-5.66l-24-24a8,8,0,0,0-11.32,11.32L336,235.31v76.35A96.12,96.12,0,0,1,248,216ZM456,480H427.31l22.35-22.34a8,8,0,0,0-11.32-11.32L404.69,480H392V416a8,8,0,0,0-16,0v64H363.31l-33.65-33.66a8,8,0,0,0-11.32,11.32L340.69,480H320a32,32,0,0,1-5.86-63.45,8.037,8.037,0,0,0,6.41-6.41,32,32,0,0,1,45.67-22.81,8,8,0,0,0,11.2-4.8,32.006,32.006,0,1,1,59.19,23.8,8,8,0,0,0,9.6,11.2A32,32,0,1,1,456,480Z"/><path d="M56,128h96a40,40,0,0,0,2.639-79.914A56,56,0,0,0,48.448,64.9,32,32,0,0,0,56,128Zm0-48a8,8,0,0,0,8-8,40,40,0,0,1,77.749-13.231,8,8,0,0,0,8.222,5.325C150.72,64.03,151.383,64,152,64a24,24,0,0,1,0,48H56a16,16,0,0,1,0-32Z"/></g></svg>
