<?xml version="1.0"?>
<svg xmlns="http://www.w3.org/2000/svg" width="512" height="512" viewBox="0 0 512 512" style="fill:#D4C17F;"><g><path d="M496,88H424V72h32a8,8,0,0,0,8-8V32a8,8,0,0,0-8-8H376a8,8,0,0,0-8,8V64a8,8,0,0,0,8,8h32V88H264V72h32a8,8,0,0,0,8-8V32a8,8,0,0,0-8-8H216a8,8,0,0,0-8,8V64a8,8,0,0,0,8,8h32V88H104V72h32a8,8,0,0,0,8-8V32a8,8,0,0,0-8-8H56a8,8,0,0,0-8,8V64a8,8,0,0,0,8,8H88V88H16a8,8,0,0,0-8,8V368a8,8,0,0,0,8,8H120v96H56a8,8,0,0,0,0,16H424a8,8,0,0,0,0-16H392V376H496a8,8,0,0,0,8-8V96A8,8,0,0,0,496,88ZM384,56V40h64V56ZM224,56V40h64V56ZM64,56V40h64V56Zm88,416H136V376h16Zm192,0H168V376H344Zm32,0H360V376h16ZM488,360H24V104H488Z"/><path d="M456,472h-8a8,8,0,0,0,0,16h8a8,8,0,0,0,0-16Z"/></g></svg>
