<?xml version="1.0"?>
<svg xmlns="http://www.w3.org/2000/svg" width="512" height="512" viewBox="0 0 512 512"><path d="M504,348V256a8,8,0,0,0-8-8H480A120.134,120.134,0,0,0,360,368a8,8,0,0,0,8,8h29.17l-27.08,88H312V448a8,8,0,0,0-8-8H280V344h64a8,8,0,0,0,8-8V312a8,8,0,0,0-8-8H264V128H464a8,8,0,0,0,2.87-15.47l-208-80a8,8,0,0,0-5.74,0l-208,80A8,8,0,0,0,48,128H248V304H168a8,8,0,0,0-8,8v24a8,8,0,0,0,8,8h64v96H208a8,8,0,0,0-8,8v16H141.91l-27.08-88H144a8,8,0,0,0,8-8A120.134,120.134,0,0,0,32,248H16a8,8,0,0,0-8,8v92a28.031,28.031,0,0,0,28,28h9.17L18.09,464H16a8,8,0,0,0,0,16H496a8,8,0,0,0,0-16h-2.09l-27.08-88H476A28.031,28.031,0,0,0,504,348ZM36,360a12.01,12.01,0,0,1-12-12V264h8a104.15,104.15,0,0,1,103.7,96ZM34.83,464l27.08-88H98.09l27.08,88ZM91.09,112,256,48.57,420.91,112ZM176,328v-8H336v8Zm88,16v96H248V344Zm32,120H216v-8h80Zm181.17,0H386.83l27.08-88h36.18ZM376.3,360A104.15,104.15,0,0,1,480,264h8v84a12.01,12.01,0,0,1-12,12Z"/></svg>
