<?xml version="1.0"?>
<svg xmlns="http://www.w3.org/2000/svg" width="512" height="512" viewBox="0 0 512 512"><g><path d="M496,448H464V296h16a8,8,0,0,0,8-8V256a8,8,0,0,0-8-8H424V120h16a8,8,0,0,0,8-8V80a8,8,0,0,0-8-8H320V56a8,8,0,0,0-8-8H200a8,8,0,0,0-8,8V72H72a8,8,0,0,0-8,8v32a8,8,0,0,0,8,8H88V248H32a8,8,0,0,0-8,8v32a8,8,0,0,0,8,8H48V448H16a8,8,0,0,0,0,16H496a8,8,0,0,0,0-16ZM320,88H432v16H320ZM208,64h96v3.36L256,94.79,208,67.36Zm0,21.79,44.03,25.16a8.03,8.03,0,0,0,7.94,0L304,85.79V128H208ZM200,144H312a8,8,0,0,0,8-8V120h88V248H104V120h88v16A8,8,0,0,0,200,144ZM80,104V88H192v16ZM40,280V264H472v16ZM328,448H184v-8H328ZM200,424V336h48v88Zm64,0V336h48v88Zm184,24H344V432a8,8,0,0,0-8-8h-8V328a8,8,0,0,0-8-8H192a8,8,0,0,0-8,8v96h-8a8,8,0,0,0-8,8v16H64V296H448Z"/><path d="M424,376V328a8,8,0,0,0-8-8H368a8,8,0,0,0-8,8v48a8,8,0,0,0,0,16h64a8,8,0,0,0,0-16Zm-16,0H376V336h32Z"/><path d="M152,376V328a8,8,0,0,0-8-8H96a8,8,0,0,0-8,8v48a8,8,0,0,0,0,16h64a8,8,0,0,0,0-16Zm-16,0H104V336h32Z"/><path d="M288,216V168a8,8,0,0,0-8-8H232a8,8,0,0,0-8,8v48a8,8,0,0,0,0,16h64a8,8,0,0,0,0-16Zm-16,0H240V176h32Z"/><path d="M192,216V168a8,8,0,0,0-8-8H136a8,8,0,0,0-8,8v48a8,8,0,0,0,0,16h64a8,8,0,0,0,0-16Zm-16,0H144V176h32Z"/><path d="M384,216V168a8,8,0,0,0-8-8H328a8,8,0,0,0-8,8v48a8,8,0,0,0,0,16h64a8,8,0,0,0,0-16Zm-16,0H336V176h32Z"/></g></svg>
